<svg width="360" height="48" viewBox="0 0 360 48" fill="none" xmlns="http://www.w3.org/2000/svg">
<line y1="47.75" x2="360" y2="47.75" stroke="#DADADA" stroke-width="0.5"/>
<path d="M116.832 30H119.808L116.672 25.472C118.464 25.12 119.568 23.84 119.568 22.224C119.568 20.288 118.048 18.88 115.616 18.88H110.944V30H113.6V25.568H113.888L116.832 30ZM113.6 21.216H115.536C116.432 21.216 116.96 21.696 116.96 22.448C116.96 23.216 116.432 23.68 115.536 23.68H113.6V21.216ZM126.857 21.568V22.448C126.265 21.856 125.465 21.536 124.425 21.536C121.977 21.536 120.217 23.264 120.217 25.792C120.217 28.32 121.977 30.208 124.425 30.208C125.465 30.208 126.265 29.856 126.857 29.232V30H129.321V21.568H126.857ZM124.809 27.856C123.673 27.856 122.873 26.992 122.873 25.792C122.873 24.592 123.689 23.712 124.809 23.712C125.977 23.712 126.761 24.56 126.761 25.792C126.761 27.008 125.977 27.856 124.809 27.856ZM135.618 20.192H136.114V18.112H135.506C133.058 18.112 131.778 19.44 131.746 21.568H130.514V23.84H131.746V30H134.402V23.84H136.098V21.568H134.402V21.392C134.402 20.64 134.834 20.192 135.618 20.192ZM143.317 21.568V22.448C142.725 21.856 141.925 21.536 140.885 21.536C138.437 21.536 136.677 23.264 136.677 25.792C136.677 28.32 138.437 30.208 140.885 30.208C141.925 30.208 142.725 29.856 143.317 29.232V30H145.781V21.568H143.317ZM141.269 27.856C140.133 27.856 139.333 26.992 139.333 25.792C139.333 24.592 140.149 23.712 141.269 23.712C142.437 23.712 143.221 24.56 143.221 25.792C143.221 27.008 142.437 27.856 141.269 27.856ZM149.663 26.576H155.775C155.807 26.352 155.839 26.032 155.839 25.616C155.839 23.536 154.207 21.36 151.455 21.36C149.023 21.36 147.071 23.36 147.071 25.792C147.071 28.304 148.831 30.208 151.615 30.208C153.711 30.208 154.767 29.36 155.439 28.48L153.439 27.152C153.103 27.712 152.639 28.032 151.695 28.032C150.687 28.032 149.935 27.52 149.663 26.576ZM149.631 24.912C149.855 23.888 150.543 23.36 151.519 23.36C152.495 23.36 153.135 23.952 153.359 24.912H149.631ZM157.13 30H159.802V18.304H157.13V30ZM177.07 30L176.222 18.88H173.118L170.766 26.304L168.43 18.88H165.31L164.494 30H166.974L167.518 22.8L169.662 29.648H171.886L174.03 22.832L174.574 30H177.07ZM184.805 21.568V22.448C184.213 21.856 183.413 21.536 182.373 21.536C179.925 21.536 178.165 23.264 178.165 25.792C178.165 28.32 179.925 30.208 182.373 30.208C183.413 30.208 184.213 29.856 184.805 29.232V30H187.269V21.568H184.805ZM182.757 27.856C181.621 27.856 180.821 26.992 180.821 25.792C180.821 24.592 181.637 23.712 182.757 23.712C183.925 23.712 184.709 24.56 184.709 25.792C184.709 27.008 183.925 27.856 182.757 27.856ZM191.95 27.856L195.646 23.52V21.568H188.766V23.712H192.366L188.606 28.128V30H195.79V27.856H191.95ZM200.142 27.856L203.838 23.52V21.568H196.958V23.712H200.558L196.798 28.128V30H203.982V27.856H200.142ZM210.685 21.568V26.48C210.685 27.28 210.141 27.84 209.293 27.84C208.429 27.84 207.917 27.264 207.917 26.48V21.568H205.245V26.832C205.245 28.736 206.333 30.208 208.493 30.208C209.421 30.208 210.253 29.856 210.845 29.296V30H213.341V21.568H210.685ZM219.16 30.208C221.56 30.208 222.984 28.624 223.32 27.44L220.952 26.496C220.744 27.264 220.12 27.84 219.208 27.84C218.168 27.84 217.352 27.056 217.352 25.792C217.352 24.528 218.168 23.744 219.208 23.744C220.104 23.744 220.696 24.32 220.904 25.12L223.272 24.176C222.936 22.944 221.528 21.376 219.144 21.376C216.568 21.376 214.664 23.328 214.664 25.808C214.664 28.304 216.6 30.208 219.16 30.208ZM230.699 21.568V22.448C230.107 21.856 229.307 21.536 228.267 21.536C225.819 21.536 224.059 23.264 224.059 25.792C224.059 28.32 225.819 30.208 228.267 30.208C229.307 30.208 230.107 29.856 230.699 29.232V30H233.163V21.568H230.699ZM228.651 27.856C227.515 27.856 226.715 26.992 226.715 25.792C226.715 24.592 227.531 23.712 228.651 23.712C229.819 23.712 230.603 24.56 230.603 25.792C230.603 27.008 229.819 27.856 228.651 27.856ZM238.932 30H240.372V27.68H239.492C238.74 27.68 238.308 27.248 238.308 26.432V23.84H240.324V21.568H238.404V19.328H235.812V20.624C235.812 21.248 235.508 21.568 234.916 21.568H234.244V23.84H235.652V26.752C235.652 28.704 236.756 30 238.932 30ZM245.674 30.208C248.378 30.208 250.298 28.304 250.298 25.792C250.298 23.264 248.378 21.376 245.674 21.376C242.986 21.376 241.066 23.264 241.066 25.792C241.066 28.304 242.986 30.208 245.674 30.208ZM245.69 27.84C244.522 27.84 243.754 26.976 243.754 25.792C243.754 24.576 244.522 23.744 245.69 23.744C246.858 23.744 247.61 24.576 247.61 25.776C247.61 26.992 246.842 27.84 245.69 27.84Z" fill="#333333"/>
<path d="M330 33H326C325.47 33 324.961 32.7893 324.586 32.4142C324.211 32.0391 324 31.5304 324 31V17C324 16.4696 324.211 15.9609 324.586 15.5858C324.961 15.2107 325.47 15 326 15H330" stroke="#5E49FF" stroke-width="2" stroke-linecap="round" stroke-linejoin="round"/>
<path d="M337 29L342 24L337 19" stroke="#5E49FF" stroke-width="2" stroke-linecap="round" stroke-linejoin="round"/>
<path d="M342 24H330" stroke="#5E49FF" stroke-width="2" stroke-linecap="round" stroke-linejoin="round"/>
</svg>
